<svg width="161" height="58" viewBox="0 0 161 58" fill="none" xmlns="http://www.w3.org/2000/svg">
<g clip-path="url(#clip0_591_591)">
<circle cx="28" cy="29" r="28" fill="#6938EF"/>
<path d="M16.3002 25.9494L16.2002 25.8994L16.3002 25.9494Z" fill="white"/>
<path d="M36.7501 30.4993C36.7001 29.8993 36.7501 29.2993 36.6001 28.6993C36.5001 28.3993 36.4501 28.1993 36.2001 27.9993C35.9001 27.7993 35.6001 27.5993 35.2501 27.4493C34.4501 27.0493 33.6001 26.7493 32.6501 26.5493C30.7001 26.1493 28.7501 26.0493 26.7501 26.1493C25.9001 26.1993 25.1001 26.2493 24.3001 26.3493C22.9001 26.5493 21.5501 26.8993 20.3501 27.5993C19.9001 27.8493 19.5501 28.0493 19.4501 28.5493C19.1501 29.7993 19.1501 31.7994 19.1001 33.0993C19.1001 33.3493 19.2001 33.4993 19.3501 33.6493C19.5501 33.7493 19.7001 33.8994 19.9001 33.9494C21.1001 34.4494 22.4001 34.5993 23.6501 34.7493C24.3001 34.8493 25.0001 34.8993 25.6501 34.8993C28.6501 34.9993 31.6001 34.9993 34.5001 34.3993C35.2001 34.2493 35.8001 33.9494 36.4501 33.6994C36.6501 33.5994 36.8001 33.3993 36.8001 33.1493C36.8001 32.5493 36.8001 31.1493 36.7501 30.4993ZM35.5501 33.4993C35.2501 33.6493 34.9001 33.7993 34.5501 33.8493C33.9501 33.9493 33.3501 34.0493 32.7001 34.0993C31.5501 34.1993 30.3501 34.2493 29.2001 34.2993C28.7501 34.2993 28.3501 34.3493 27.9001 34.3493C27.2001 34.3493 26.5001 34.2993 25.8001 34.2993C24.9501 34.2493 24.0501 34.1993 23.2001 34.1493C22.3001 34.0493 21.4001 33.9993 20.5001 33.6493C20.4501 33.6493 20.4501 33.6493 20.4001 33.5993C20.1501 33.4993 19.8501 33.2493 20.1501 33.0493C20.3501 32.8993 20.6501 32.8493 20.8501 32.7993C21.2501 32.6993 21.7001 32.5993 22.1501 32.4993C23.7001 32.2493 25.3001 32.1994 26.9001 32.1994C28.4001 32.1994 29.8501 32.1993 31.3501 32.2493C32.4501 32.2993 33.5001 32.4993 34.6001 32.6493C34.8501 32.6993 35.1501 32.7493 35.4001 32.8493C35.7001 32.9493 35.9501 33.2993 35.5501 33.4993Z" fill="white"/>
<path d="M16.75 32.7496C17 33.6496 17.7 36.3996 17.7 38.6496C17.7 38.6496 17.4 39.0996 16.35 39.1496C15.3 39.0996 15 38.6496 15 38.6496C15 36.3996 15.7 33.6996 15.9 32.7496C15.65 32.5996 15.5 32.3496 15.5 32.0996C15.5 31.7496 15.75 31.3996 16.1 31.3496V29.8496L16.5 30.0496V31.2996C16.85 31.3996 17.1 31.6996 17.1 32.0496C17.1 32.3496 16.95 32.5996 16.75 32.7496Z" fill="white"/>
<path d="M43.1001 27.2996C41.4001 28.2996 39.7001 29.2496 38.0001 30.2496L37.7001 30.3996V30.3496V30.2996C37.7001 30.1996 37.7001 30.0496 37.7001 29.9496C37.7001 29.4996 37.7001 28.9996 37.5501 28.4496C37.4501 27.9996 37.2501 27.5496 36.7001 27.1996L36.5501 27.0996C36.3001 26.8996 36.0001 26.7496 35.6501 26.5496C34.8001 26.1496 33.9001 25.7996 32.8501 25.5996C31.3501 25.2996 29.7501 25.1496 28.0001 25.1496C27.6001 25.1496 27.1501 25.1496 26.7501 25.1996C25.7501 25.2496 24.9501 25.2996 24.2001 25.3996C22.4501 25.6496 21.1001 26.0996 19.8501 26.7996C19.3501 27.0496 18.7501 27.3996 18.5001 28.3496C18.3501 28.9496 18.3001 29.6496 18.2501 30.3496L17.8001 30.0996L16.9001 29.5996L16.8001 29.5496L16.4001 29.3496L16.3001 29.2996L15.1001 28.5996C14.4001 28.1996 13.6501 27.7496 12.8501 27.2996C13.2001 27.0996 13.4501 26.8996 13.7501 26.7496C18.3001 24.1996 22.8001 21.6496 27.3001 19.0996C27.8001 18.8496 28.1501 18.8496 28.6501 19.0996C33.2501 21.6996 37.8501 24.2996 42.4501 26.8996C42.7001 26.9996 42.8501 27.0996 43.1001 27.2996Z" fill="white"/>
</g>
<path d="M87.6278 22.3636C87.6278 24.9015 87.1468 27.0606 86.1847 28.8409C85.2301 30.6212 83.9271 31.9811 82.2756 32.9205C80.6316 33.8523 78.7831 34.3182 76.7301 34.3182C74.6619 34.3182 72.8059 33.8485 71.1619 32.9091C69.518 31.9697 68.2188 30.6098 67.2642 28.8295C66.3097 27.0492 65.8324 24.8939 65.8324 22.3636C65.8324 19.8258 66.3097 17.6667 67.2642 15.8864C68.2188 14.1061 69.518 12.75 71.1619 11.8182C72.8059 10.8788 74.6619 10.4091 76.7301 10.4091C78.7831 10.4091 80.6316 10.8788 82.2756 11.8182C83.9271 12.75 85.2301 14.1061 86.1847 15.8864C87.1468 17.6667 87.6278 19.8258 87.6278 22.3636ZM82.6392 22.3636C82.6392 20.7197 82.393 19.3333 81.9006 18.2045C81.4157 17.0758 80.7301 16.2197 79.8438 15.6364C78.9574 15.053 77.9195 14.7614 76.7301 14.7614C75.5407 14.7614 74.5028 15.053 73.6165 15.6364C72.7301 16.2197 72.0407 17.0758 71.5483 18.2045C71.0634 19.3333 70.821 20.7197 70.821 22.3636C70.821 24.0076 71.0634 25.3939 71.5483 26.5227C72.0407 27.6515 72.7301 28.5076 73.6165 29.0909C74.5028 29.6742 75.5407 29.9659 76.7301 29.9659C77.9195 29.9659 78.9574 29.6742 79.8438 29.0909C80.7301 28.5076 81.4157 27.6515 81.9006 26.5227C82.393 25.3939 82.6392 24.0076 82.6392 22.3636ZM105.955 21.5227L101.523 21.7955C101.447 21.4167 101.284 21.0758 101.034 20.7727C100.784 20.4621 100.455 20.2159 100.045 20.0341C99.6439 19.8447 99.1629 19.75 98.6023 19.75C97.8523 19.75 97.2197 19.9091 96.7045 20.2273C96.1894 20.5379 95.9318 20.9545 95.9318 21.4773C95.9318 21.8939 96.0985 22.2462 96.4318 22.5341C96.7652 22.822 97.3371 23.053 98.1477 23.2273L101.307 23.8636C103.004 24.2121 104.269 24.7727 105.102 25.5455C105.936 26.3182 106.352 27.3333 106.352 28.5909C106.352 29.7348 106.015 30.7386 105.341 31.6023C104.674 32.4659 103.758 33.1402 102.591 33.625C101.432 34.1023 100.095 34.3409 98.5795 34.3409C96.2689 34.3409 94.428 33.8598 93.0568 32.8977C91.6932 31.928 90.8939 30.6098 90.6591 28.9432L95.4205 28.6932C95.5644 29.3977 95.9129 29.9356 96.4659 30.3068C97.0189 30.6705 97.7273 30.8523 98.5909 30.8523C99.4394 30.8523 100.121 30.6894 100.636 30.3636C101.159 30.0303 101.424 29.6023 101.432 29.0795C101.424 28.6402 101.239 28.2803 100.875 28C100.511 27.7121 99.9508 27.4924 99.1932 27.3409L96.1705 26.7386C94.4659 26.3977 93.197 25.8068 92.3636 24.9659C91.5379 24.125 91.125 23.053 91.125 21.75C91.125 20.6288 91.428 19.6629 92.0341 18.8523C92.6477 18.0417 93.5076 17.4167 94.6136 16.9773C95.7273 16.5379 97.0303 16.3182 98.5227 16.3182C100.727 16.3182 102.462 16.7841 103.727 17.7159C105 18.6477 105.742 19.9167 105.955 21.5227ZM118.935 16.5455V20.1818H108.423V16.5455H118.935ZM110.81 12.3636H115.651V28.6364C115.651 29.0833 115.719 29.4318 115.855 29.6818C115.991 29.9242 116.181 30.0947 116.423 30.1932C116.673 30.2917 116.961 30.3409 117.287 30.3409C117.514 30.3409 117.741 30.322 117.969 30.2841C118.196 30.2386 118.37 30.2045 118.491 30.1818L119.253 33.7841C119.01 33.8598 118.67 33.947 118.23 34.0455C117.791 34.1515 117.257 34.2159 116.628 34.2386C115.461 34.2841 114.438 34.1288 113.56 33.7727C112.688 33.4167 112.01 32.8636 111.526 32.1136C111.041 31.3636 110.802 30.4167 110.81 29.2727V12.3636ZM122.338 34V16.5455H127.031V19.5909H127.213C127.531 18.5076 128.065 17.6894 128.815 17.1364C129.565 16.5758 130.429 16.2955 131.406 16.2955C131.649 16.2955 131.91 16.3106 132.19 16.3409C132.471 16.3712 132.717 16.4129 132.929 16.4659V20.7614C132.702 20.6932 132.387 20.6326 131.986 20.5795C131.584 20.5265 131.217 20.5 130.884 20.5C130.171 20.5 129.535 20.6553 128.974 20.9659C128.421 21.2689 127.982 21.6932 127.656 22.2386C127.338 22.7841 127.179 23.4129 127.179 24.125V34H122.338ZM140.159 34.3295C139.045 34.3295 138.053 34.1364 137.182 33.75C136.311 33.3561 135.621 32.7765 135.114 32.0114C134.614 31.2386 134.364 30.2765 134.364 29.125C134.364 28.1553 134.542 27.3409 134.898 26.6818C135.254 26.0227 135.739 25.4924 136.352 25.0909C136.966 24.6894 137.663 24.3864 138.443 24.1818C139.231 23.9773 140.057 23.8333 140.92 23.75C141.936 23.6439 142.754 23.5455 143.375 23.4545C143.996 23.3561 144.447 23.2121 144.727 23.0227C145.008 22.8333 145.148 22.553 145.148 22.1818V22.1136C145.148 21.3939 144.92 20.8371 144.466 20.4432C144.019 20.0492 143.383 19.8523 142.557 19.8523C141.686 19.8523 140.992 20.0455 140.477 20.4318C139.962 20.8106 139.621 21.2879 139.455 21.8636L134.977 21.5C135.205 20.4394 135.652 19.5227 136.318 18.75C136.985 17.9697 137.845 17.3712 138.898 16.9545C139.958 16.5303 141.186 16.3182 142.58 16.3182C143.549 16.3182 144.477 16.4318 145.364 16.6591C146.258 16.8864 147.049 17.2386 147.739 17.7159C148.436 18.1932 148.985 18.8068 149.386 19.5568C149.788 20.2992 149.989 21.1894 149.989 22.2273V34H145.398V31.5795H145.261C144.981 32.125 144.606 32.6061 144.136 33.0227C143.667 33.4318 143.102 33.7538 142.443 33.9886C141.784 34.2159 141.023 34.3295 140.159 34.3295ZM141.545 30.9886C142.258 30.9886 142.886 30.8485 143.432 30.5682C143.977 30.2803 144.405 29.8939 144.716 29.4091C145.027 28.9242 145.182 28.375 145.182 27.7614V25.9091C145.03 26.0076 144.822 26.0985 144.557 26.1818C144.299 26.2576 144.008 26.3295 143.682 26.3977C143.356 26.4583 143.03 26.5152 142.705 26.5682C142.379 26.6136 142.083 26.6553 141.818 26.6932C141.25 26.7765 140.754 26.9091 140.33 27.0909C139.905 27.2727 139.576 27.5189 139.341 27.8295C139.106 28.1326 138.989 28.5114 138.989 28.9659C138.989 29.625 139.227 30.1288 139.705 30.4773C140.189 30.8182 140.803 30.9886 141.545 30.9886ZM158.835 10.7273V34H153.994V10.7273H158.835Z" fill="#101828"/>
<path d="M70.9828 45.3636C70.9231 44.8598 70.6812 44.4688 70.2569 44.1903C69.8327 43.9119 69.3123 43.7727 68.6958 43.7727C68.2451 43.7727 67.8507 43.8456 67.5126 43.9915C67.1779 44.1373 66.916 44.3378 66.7271 44.593C66.5415 44.8482 66.4487 45.1383 66.4487 45.4631C66.4487 45.7348 66.5133 45.9685 66.6426 46.1641C66.7752 46.3563 66.9442 46.517 67.1497 46.6463C67.3552 46.7723 67.5706 46.8767 67.796 46.9595C68.0214 47.0391 68.2285 47.1037 68.4174 47.1534L69.4515 47.4318C69.7167 47.5014 70.0117 47.5975 70.3365 47.7202C70.6646 47.8428 70.9778 48.0102 71.2761 48.2223C71.5777 48.4311 71.8263 48.6996 72.0218 49.0277C72.2174 49.3558 72.3152 49.7585 72.3152 50.2358C72.3152 50.786 72.171 51.2831 71.8826 51.7273C71.5976 52.1714 71.18 52.5244 70.6298 52.7862C70.0829 53.0481 69.4184 53.179 68.6362 53.179C67.907 53.179 67.2756 53.0613 66.742 52.826C66.2117 52.5907 65.7941 52.2625 65.4892 51.8416C65.1876 51.4207 65.0169 50.9318 64.9771 50.375H66.2498C66.283 50.7595 66.4122 51.0777 66.6376 51.3295C66.8663 51.5781 67.1547 51.7637 67.5027 51.8864C67.854 52.0057 68.2318 52.0653 68.6362 52.0653C69.1068 52.0653 69.5294 51.9891 69.9039 51.8366C70.2785 51.6809 70.5751 51.4654 70.7939 51.1903C71.0126 50.9119 71.122 50.5871 71.122 50.2159C71.122 49.8778 71.0275 49.6027 70.8386 49.3906C70.6497 49.1785 70.4011 49.0062 70.0929 48.8736C69.7846 48.741 69.4515 48.625 69.0936 48.5256L67.8407 48.1676C67.0453 47.9389 66.4155 47.6125 65.9515 47.1882C65.4875 46.764 65.2555 46.2088 65.2555 45.5227C65.2555 44.9527 65.4096 44.4555 65.7179 44.0312C66.0294 43.6037 66.447 43.2723 66.9707 43.0369C67.4977 42.7983 68.086 42.679 68.7356 42.679C69.3919 42.679 69.9752 42.7966 70.4856 43.032C70.996 43.264 71.4004 43.5821 71.6987 43.9865C72.0003 44.3909 72.1594 44.8499 72.176 45.3636H70.9828ZM77.5043 45.3636V46.358H73.5469V45.3636H77.5043ZM74.7003 43.5341H75.8736V50.8125C75.8736 51.1439 75.9216 51.3925 76.0178 51.5582C76.1172 51.7206 76.2431 51.83 76.3956 51.8864C76.5514 51.9394 76.7154 51.9659 76.8878 51.9659C77.017 51.9659 77.1231 51.9593 77.206 51.946C77.2888 51.9295 77.3551 51.9162 77.4048 51.9062L77.6435 52.9602C77.5639 52.9901 77.4529 53.0199 77.3104 53.0497C77.1679 53.0829 76.9872 53.0994 76.7685 53.0994C76.437 53.0994 76.1122 53.0282 75.794 52.8857C75.4792 52.7431 75.2173 52.526 75.0085 52.2344C74.803 51.9427 74.7003 51.5748 74.7003 51.1307V43.5341ZM84.0817 49.8778V45.3636H85.255V53H84.0817V51.7074H84.0021C83.8232 52.0952 83.5447 52.425 83.1669 52.6967C82.7891 52.9652 82.3118 53.0994 81.7351 53.0994C81.2578 53.0994 80.8336 52.995 80.4624 52.7862C80.0911 52.5741 79.7995 52.2559 79.5874 51.8317C79.3752 51.4041 79.2692 50.8655 79.2692 50.2159V45.3636H80.4425V50.1364C80.4425 50.6932 80.5982 51.1373 80.9098 51.4688C81.2247 51.8002 81.6257 51.9659 82.1129 51.9659C82.4046 51.9659 82.7012 51.8913 83.0028 51.7422C83.3078 51.593 83.563 51.3643 83.7685 51.0561C83.9773 50.7479 84.0817 50.3551 84.0817 49.8778ZM90.2875 53.1591C89.6511 53.1591 89.0893 52.9983 88.6021 52.6768C88.1149 52.352 87.7337 51.8946 87.4586 51.3047C87.1835 50.7114 87.046 50.0104 87.046 49.2017C87.046 48.3996 87.1835 47.7036 87.4586 47.1136C87.7337 46.5237 88.1165 46.0679 88.6071 45.7464C89.0976 45.425 89.6644 45.2642 90.3074 45.2642C90.8045 45.2642 91.1973 45.3471 91.4856 45.5128C91.7773 45.6752 91.9993 45.8608 92.1518 46.0696C92.3076 46.2751 92.4286 46.4441 92.5147 46.5767H92.6142V42.8182H93.7875V53H92.6539V51.8267H92.5147C92.4286 51.9659 92.3059 52.1416 92.1468 52.3537C91.9877 52.5625 91.7607 52.7498 91.4657 52.9155C91.1708 53.0779 90.778 53.1591 90.2875 53.1591ZM90.4466 52.1051C90.9172 52.1051 91.3149 51.9825 91.6397 51.7372C91.9645 51.4886 92.2115 51.1456 92.3805 50.7081C92.5495 50.2673 92.6341 49.7585 92.6341 49.1818C92.6341 48.6117 92.5512 48.1129 92.3855 47.6854C92.2198 47.2545 91.9745 46.9197 91.6497 46.6811C91.3249 46.4392 90.9238 46.3182 90.4466 46.3182C89.9494 46.3182 89.5351 46.4458 89.2037 46.701C88.8755 46.9529 88.6286 47.2959 88.4629 47.7301C88.3005 48.161 88.2193 48.6449 88.2193 49.1818C88.2193 49.7254 88.3021 50.2192 88.4679 50.6634C88.6369 51.1042 88.8855 51.4555 89.2136 51.7173C89.545 51.9759 89.956 52.1051 90.4466 52.1051ZM96.0993 53V45.3636H97.2725V53H96.0993ZM96.6958 44.0909C96.4672 44.0909 96.2699 44.013 96.1042 43.8572C95.9418 43.7015 95.8606 43.5142 95.8606 43.2955C95.8606 43.0767 95.9418 42.8894 96.1042 42.7337C96.2699 42.5779 96.4672 42.5 96.6958 42.5C96.9245 42.5 97.1201 42.5779 97.2825 42.7337C97.4482 42.8894 97.5311 43.0767 97.5311 43.2955C97.5311 43.5142 97.4482 43.7015 97.2825 43.8572C97.1201 44.013 96.9245 44.0909 96.6958 44.0909ZM105.666 45.3636L102.842 53H101.649L98.8249 45.3636H100.098L102.206 51.4489H102.285L104.393 45.3636H105.666ZM109.229 53.179C108.745 53.179 108.306 53.0878 107.912 52.9055C107.517 52.7199 107.204 52.4531 106.972 52.1051C106.74 51.7538 106.624 51.3295 106.624 50.8324C106.624 50.3949 106.71 50.0402 106.883 49.7685C107.055 49.4934 107.285 49.2779 107.574 49.1222C107.862 48.9664 108.18 48.8504 108.528 48.7741C108.88 48.6946 109.233 48.6316 109.587 48.5852C110.051 48.5256 110.427 48.4808 110.716 48.451C111.007 48.4179 111.22 48.3632 111.352 48.2869C111.488 48.2107 111.556 48.0781 111.556 47.8892V47.8494C111.556 47.3589 111.422 46.9777 111.153 46.706C110.888 46.4342 110.485 46.2983 109.945 46.2983C109.385 46.2983 108.946 46.4209 108.628 46.6662C108.309 46.9115 108.086 47.1733 107.956 47.4517L106.843 47.054C107.042 46.59 107.307 46.2287 107.638 45.9702C107.973 45.7083 108.338 45.526 108.732 45.4233C109.13 45.3172 109.521 45.2642 109.905 45.2642C110.151 45.2642 110.432 45.294 110.751 45.3537C111.072 45.41 111.382 45.5277 111.68 45.7067C111.982 45.8857 112.232 46.1558 112.431 46.517C112.63 46.8783 112.729 47.3622 112.729 47.9688V53H111.556V51.9659H111.496C111.417 52.1316 111.284 52.3089 111.099 52.4979C110.913 52.6868 110.666 52.8475 110.358 52.9801C110.05 53.1127 109.673 53.179 109.229 53.179ZM109.408 52.125C109.872 52.125 110.263 52.0339 110.581 51.8516C110.903 51.6693 111.145 51.4339 111.307 51.1456C111.473 50.8572 111.556 50.554 111.556 50.2358V49.1619C111.506 49.2216 111.397 49.2763 111.228 49.326C111.062 49.3724 110.87 49.4138 110.651 49.4503C110.436 49.4834 110.225 49.5133 110.02 49.5398C109.818 49.563 109.653 49.5829 109.528 49.5994C109.223 49.6392 108.938 49.7038 108.672 49.7933C108.411 49.8795 108.198 50.0104 108.036 50.1861C107.877 50.3584 107.797 50.5937 107.797 50.892C107.797 51.2997 107.948 51.608 108.25 51.8168C108.555 52.0223 108.941 52.125 109.408 52.125ZM117.973 53.1591C117.257 53.1591 116.641 52.9901 116.124 52.652C115.607 52.3139 115.209 51.8482 114.93 51.255C114.652 50.6617 114.513 49.9839 114.513 49.2216C114.513 48.446 114.655 47.7616 114.94 47.1683C115.229 46.5717 115.63 46.1061 116.143 45.7713C116.661 45.4332 117.264 45.2642 117.953 45.2642C118.49 45.2642 118.974 45.3636 119.405 45.5625C119.836 45.7614 120.189 46.0398 120.464 46.3977C120.739 46.7557 120.91 47.1733 120.976 47.6506H119.803C119.713 47.3026 119.514 46.9943 119.206 46.7259C118.901 46.4541 118.49 46.3182 117.973 46.3182C117.516 46.3182 117.115 46.4375 116.77 46.6761C116.429 46.9115 116.162 47.2446 115.969 47.6754C115.781 48.103 115.686 48.6051 115.686 49.1818C115.686 49.7718 115.779 50.2855 115.964 50.723C116.153 51.1605 116.419 51.5002 116.76 51.7422C117.105 51.9841 117.509 52.1051 117.973 52.1051C118.278 52.1051 118.555 52.0521 118.803 51.946C119.052 51.84 119.262 51.6875 119.435 51.4886C119.607 51.2898 119.73 51.0511 119.803 50.7727H120.976C120.91 51.2235 120.746 51.6295 120.484 51.9908C120.225 52.3487 119.882 52.6338 119.455 52.8459C119.03 53.0547 118.536 53.1591 117.973 53.1591ZM122.691 53V45.3636H123.864V53H122.691ZM123.288 44.0909C123.059 44.0909 122.862 44.013 122.696 43.8572C122.534 43.7015 122.452 43.5142 122.452 43.2955C122.452 43.0767 122.534 42.8894 122.696 42.7337C122.862 42.5779 123.059 42.5 123.288 42.5C123.516 42.5 123.712 42.5779 123.874 42.7337C124.04 42.8894 124.123 43.0767 124.123 43.2955C124.123 43.5142 124.04 43.7015 123.874 43.8572C123.712 44.013 123.516 44.0909 123.288 44.0909ZM129.334 45.3636V46.358H125.377V45.3636H129.334ZM126.53 43.5341H127.704V50.8125C127.704 51.1439 127.752 51.3925 127.848 51.5582C127.947 51.7206 128.073 51.83 128.226 51.8864C128.381 51.9394 128.546 51.9659 128.718 51.9659C128.847 51.9659 128.953 51.9593 129.036 51.946C129.119 51.9295 129.185 51.9162 129.235 51.9062L129.474 52.9602C129.394 52.9901 129.283 53.0199 129.14 53.0497C128.998 53.0829 128.817 53.0994 128.599 53.0994C128.267 53.0994 127.942 53.0282 127.624 52.8857C127.309 52.7431 127.047 52.526 126.839 52.2344C126.633 51.9427 126.53 51.5748 126.53 51.1307V43.5341ZM131.855 55.8636C131.656 55.8636 131.479 55.8471 131.323 55.8139C131.167 55.7841 131.059 55.7543 131 55.7244L131.298 54.6903C131.583 54.7633 131.835 54.7898 132.054 54.7699C132.273 54.75 132.466 54.6522 132.635 54.4766C132.808 54.3042 132.965 54.0241 133.108 53.6364L133.327 53.0398L130.503 45.3636H131.775L133.883 51.4489H133.963L136.071 45.3636H137.344L134.102 54.1136C133.956 54.508 133.776 54.8345 133.56 55.093C133.345 55.3549 133.095 55.5488 132.809 55.6747C132.528 55.8007 132.21 55.8636 131.855 55.8636Z" fill="#101828"/>
<defs>
<clipPath id="clip0_591_591">
<rect width="56" height="56" fill="white" transform="translate(0 1)"/>
</clipPath>
</defs>
</svg>
